<svg xmlns="http://www.w3.org/2000/svg" fill="none" viewBox="0 0 3588 1582">
  <path stroke="#011F4A" stroke-width="4" d="M1948.55 613.96c-5.58-73.211-30.95-148.001 10.18-211.565 52.83-81.654 132.18-180.768 237.36-170.983 105.15 9.781 124.85 138.552 192.5 210.969 56.18 60.155 161.3 93.369 164.82 171.579 3.56 79.063-80.98 134.79-148.74 185.918-60.5 45.655-129.31 83.969-208.58 83.728-79.03-.241-157.12-30.478-207.17-84.993-46.31-50.453-35.41-119.613-40.37-184.653ZM301.59 950.346c3.153-125.869 202.894-127.908 340.109-159.187 98.646-22.488 215.888-54.52 275.529 18.847 59.393 73.063-4.977 166.12-67.443 237.134-53.839 61.2-130.912 100.95-216.647 85.81-140.987-24.89-334.747-54.88-331.548-182.604Z" clip-rule="evenodd"/>
  <path stroke="#011F4A" stroke-width="4" d="M379.489 507.239c-4.764-81.657 35.973-163.68 106.613-216.15 66.03-49.046 168.646-81.678 243.484-43.894 70.994 35.844 27.38 137.187 66.938 200.62 19.537 31.328 74.292 28.819 95.23 59.424 53.233 77.812 187.946 182.234 111.826 243.24-77.737 62.307-169.891-103.062-273.994-113.267-79.687-7.811-145.543 92.351-219.506 64.892-81.655-30.314-126.013-116.398-130.591-194.865ZM2361.32 1104.92c31.3-59.16 119.4-63.28 186.81-89.3 32.82-12.66 65.39-14.83 100.36-21.531 53.68-10.283 106.64-49.889 155.43-27.465 54.64 25.116 68.14 85.846 85.71 138.296 28.82 86.03 129.24 204.64 46.31 255.77-88.77 54.72-179.47-105.67-287.45-107.11-104.13-1.39-188.92 146.13-278.93 99.54-83.59-43.27-49.43-170.35-8.24-248.2ZM1431.18 636.888c.7-101.159-213.23-195.769-132.56-266.992 80.8-71.349 202.39 66.946 299.79 119.342 34.97 18.812 43.54 57.493 74 81.739 34.58 27.522 89.75 29.438 111.5 65.911 40.35 67.643 93.53 146.273 56.23 215.291-42.26 78.208-144.9 118.235-241.73 128.006-108.25 10.922-260.16 16.018-303.52-72.99-45.88-94.196 135.58-167.631 136.29-270.307Z" clip-rule="evenodd"/>
  <path stroke="#011F4A" stroke-width="4" d="M2281.59 861.426c-6.85-91.984-72.42-238.005 26.53-264.981 118.45-32.294 174 167.419 297.44 176.658 101.45 7.594 160.3-176.22 251.33-135.584 79.6 35.54-51.69 144.597-53.49 223.907-1.73 75.687 88.44 150.754 43.49 215.004-46.38 66.29-153.71 64.81-241.33 67.78-92.32 3.13-194.45 6.84-260.44-50.76-66.35-57.92-57.38-149.448-63.53-232.024Z" clip-rule="evenodd"/>
  <path stroke="#011F4A" stroke-width="4" d="M1953.18 1157.35c-25.36-79.08-124.98-157.23-76.64-227.319 46.77-67.802 166.44-38.931 255.52-32.024 78.68 6.101 150.49 27.359 214.54 68.47 80.45 51.633 178.57 103.163 189.54 190.873 11.52 92.13-53.16 182.23-135.81 238.68-74.63 50.97-178.34 61.91-268.27 37.31-72.91-19.95-104-90.78-142.1-149.57-25.41-39.2-22.83-82.9-36.78-126.42Z" clip-rule="evenodd"/>
  <path stroke="#011F4A" stroke-width="4" d="M1344.53 1103.58c60.25-82.57 204.45 104.91 308.4 71.57 111.99-35.92 96.76-255.094 214.39-239.257 103.08 13.876-16.15 176.487.64 268.197 11.8 64.48 96.31 110.56 80.39 174.35-18.26 73.19-80.11 152.1-163.76 159.75-81.9 7.49-139.16-69.48-189.64-127.41-29.21-33.52 1.79-85.93-26.2-120.26-62.54-76.72-282.27-107.38-224.22-186.94ZM2715.55 543.275c-30.75-69.679 113.52-107.646 193.76-130.503 50.06-14.258 96.23 21.177 146.94 33.454 29.33 7.099 63.63 2.413 84 22.45 19.8 19.478 14.17 48.362 14.65 74.599.5 26.955-3.39 51.193-11.86 77.081-25.83 78.973 4.79 236.636-86.79 224.462-96.88-12.882 5.21-183.117-64.18-244.535-69.68-61.667-240.63 24.33-276.52-57.008ZM1646.1 361.155c5.4-34.595 45.03-52.681 63.48-83.517 36.25-60.597 17.85-167.972 93.95-179.598 71.85-10.978 75.87 104.627 132.96 144.931 74.38 52.515 233.26 33.943 239.72 118.184 6.31 82.316-134.7 103.539-220.29 135.461-48.71 18.168-99.84 8.299-152.39 3.534-44.22-4.01-92.64-.765-124.18-28.611-31.61-27.905-39.36-71.161-33.25-110.384Z" clip-rule="evenodd"/>
  <path stroke="#011F4A" stroke-width="4" d="M2338.19 358.148c-9.85-44.197-39.47-101.365-.37-130.025 39.72-29.11 97.57 37.975 146.25 23.103 114.33-34.929 192.41-209.32 299.38-159.248 94.34 44.159-67.43 171.433-70.96 266.17-3.27 87.732 141.8 213.088 51.76 249.102-104.8 41.918-176.67-113.354-280.18-157.736-30.58-13.113-70.1 13.025-97.86-4.36-30.88-19.341-40.67-54.063-48.02-87.006Z" clip-rule="evenodd"/>
  <path stroke="#011F4A" stroke-width="4" d="M1994.75 284.199c-8.49-71.09-76.52-171.785-5.93-206.235 77.79-37.967 143.64 93.843 232.4 95.706 83.83 1.76 150.11-124.998 221.65-86.175 65.75 35.678 8.33 132.427-17.98 196.704-17.04 41.632-70.73 56.091-100.14 91.876-41.65 50.661-35.66 138.474-103.53 155.906-69.54 17.856-142.26-31.188-187.86-81.077-41.86-45.803-31.61-108.059-38.61-166.705ZM856.58 273.228c-9.85-81.074-18.981-178.018 50.321-230.997 68.038-52.012 168.719-3.845 258.209-4.861 91.77-1.042 233.81-78.344 264.84-1.077 36.89 91.833-118.4 151.018-170.11 236.935-13.29 22.083-7.69 46.932-15.28 71.078-25.28 80.447 5.84 196.375-79.45 230.438-77.41 30.914-150.34-59.87-207.583-115.81-54.009-52.781-92.304-114.568-100.947-185.706ZM6.976 645.863c22.29-77.638 152.128-74.024 211.355-134.353 69.239-70.528 49.595-209.243 150.861-234.605 101.975-25.541 240.793 38.516 268.917 129.469 28.547 92.324-148.731 143.882-154.833 239.489-5.328 83.501 152.964 133.639 125.909 213.73-27.698 81.993-143.889 121.483-239.993 123.995-98.17 2.567-186.674-47.817-254.51-111.067C48.536 810.848-16.748 728.49 6.976 645.863ZM3050.12 667.894c-34.42-79.181-110.96-215.478-21.36-244.317 107.37-34.561 163.96 136.071 274.05 162.981 56.5 13.81 100.45-74.098 156.12-57.836 65.31 19.078 147.47 82.157 122.32 139.172-28.05 63.58-160.64 8.685-210.46 60.598-59.99 62.499 20.86 207.292-67.98 229.506-79.26 19.82-70.48-124.296-120.97-182.259-38.01-43.636-109.32-56.331-131.72-107.845ZM270.331 1172.36c58.941-90.65 233.023-7.51 332.052-64.16 58.645-33.54 3.031-158.815 72.143-167.052 65.457-7.801 39.16 115.112 94.473 147.192 92.407 53.61 254.531-3.66 304.061 84.02 47.75 84.51-27.98 197.18-113.271 253.68-79.339 52.55-186.369 12.74-285.263 10.32-93.973-2.31-194.186 25.55-269.954-23.94-84.201-54.99-186.537-159.63-134.241-240.06Z" clip-rule="evenodd"/>
</svg>
