<svg xmlns="http://www.w3.org/2000/svg" aria-hidden="true" overflow="hidden" style="position:absolute;width:0;height:0">
  <defs>
	<symbol id="close-icon" viewBox="0 0 18 18">
	  <path d="M.762.032a1.014 1.014 0 0 0-.755 1.033c.028.408-.217.14 3.86 4.222L7.574 9l-3.707 3.713C.539 16.045.152 16.442.089 16.59a1.002 1.002 0 0 0 1.321 1.321c.148-.063.545-.45 3.877-3.778L9 10.426l3.713 3.707c3.332 3.328 3.729 3.715 3.877 3.778a1.002 1.002 0 0 0 1.321-1.321c-.063-.148-.45-.545-3.778-3.877L10.426 9l3.707-3.713c3.332-3.336 3.715-3.729 3.777-3.877.224-.529.002-1.086-.53-1.327-.111-.05-.202-.065-.385-.065-.463 0-.121-.307-4.282 3.849L9 7.574 5.287 3.867C1.995.579 1.557.152 1.417.094A1.245 1.245 0 0 0 .762.032"/>
	</symbol>
    <symbol id="cosmetic-appliances-icon" viewBox="0 0 40 32">
      <path d="M12.337 10.242H-.173a.68.68 0 0 0-.695.667v4.001a.68.68 0 0 0 .695.667h.695v15.337a.68.68 0 0 0 .695.667h9.73a.68.68 0 0 0 .695-.667V15.577h.695a.68.68 0 0 0 .695-.667v-4.001a.68.68 0 0 0-.695-.667zm-7.645 12.67v-1.334h4.17v-1.334h-4.17V18.91h5.56v8.669h-5.56v-3.334h1.39v-1.334h-1.39zm5.56-5.334H3.997a.68.68 0 0 0-.695.667v10.002a.68.68 0 0 0 .695.667h6.255v1.334h-8.34v-14.67h8.34v2zm1.39-3.335H.522v-2.667h11.12v2.667zM21.546 10.367V5.492a.69.69 0 0 0-.695-.687h-.695V1.372h1.39V-.001h-7.645v1.373h4.865v3.433h-.695a.69.69 0 0 0-.695.687v4.875c-1.584.319-2.78 1.705-2.78 3.363v17.163c0 .38.311.687.695.687h8.34a.69.69 0 0 0 .695-.687V13.73c0-1.657-1.196-3.044-2.78-3.363zm-2.78-4.188h1.39v4.119h-1.39V6.179zm-.695 5.492h2.78c1.15 0 2.085.924 2.085 2.06v.687h-6.95v-.687c0-1.136.936-2.06 2.085-2.06zm4.865 15.791h-6.95v-1.373h2.78v-1.373h-2.78v-8.925h6.95v11.671zm-6.95 2.746v-1.373h6.95v1.373h-6.95zM39.313 9.389H27.584a.662.662 0 0 0-.652.672v20.847c0 .372.291.672.652.672h11.729c.36 0 .652-.301.652-.672V10.061a.661.661 0 0 0-.652-.672zm-.652 20.847H28.236V10.734h10.425v19.502z"/>
      <path d="M9.557 23.045H7.819v.854h1.738v-.854zM21.72 24.753h-1.738v1.707h1.738v-1.707zM19.548 23.046c1.677 0 3.041-1.34 3.041-2.987s-1.364-2.987-3.041-2.987c-1.677 0-3.041 1.34-3.041 2.987s1.364 2.987 3.041 2.987zm0-4.482c.838 0 1.52.67 1.52 1.494s-.682 1.494-1.52 1.494-1.52-.67-1.52-1.494.682-1.494 1.52-1.494zM31.819 16.217h3.258c1.258 0 2.281-.957 2.281-2.134s-1.023-2.134-2.281-2.134h-3.258c-1.258 0-2.28.957-2.28 2.134s1.023 2.134 2.28 2.134zm4.235-2.134c0 .504-.438.915-.977.915H34.1v-1.829h.977c.539 0 .977.41.977.915zm-4.235-.914h.977v1.829h-.977c-.539 0-.977-.41-.977-.915s.439-.915.977-.915zM31.819 23.045h3.258c1.258 0 2.281-1.149 2.281-2.561s-1.023-2.561-2.281-2.561h-3.258c-1.258 0-2.28 1.149-2.28 2.561s1.023 2.561 2.28 2.561zm4.235-2.56c0 .605-.438 1.097-.977 1.097H34.1v-2.195h.977c.539 0 .977.492.977 1.097zm-4.235-1.098h.977v2.195h-.977c-.539 0-.977-.492-.977-1.097s.439-1.097.977-1.097zM31.819 29.02h3.258c1.258 0 2.281-1.149 2.281-2.561s-1.023-2.561-2.281-2.561h-3.258c-1.258 0-2.28 1.149-2.28 2.561s1.023 2.561 2.28 2.561zm4.235-2.56c0 .605-.438 1.097-.977 1.097H34.1v-2.195h.977c.539 0 .977.492.977 1.097zm-4.235-1.098h.977v2.195h-.977c-.539 0-.977-.492-.977-1.097s.439-1.097.977-1.097z"/>
    </symbol>
    <symbol id="crown-icon" viewBox="0 0 38 32">
      <path d="M37.347 7.45c-.337-.306-.745-.502-1.178-.566s-.873.004-1.272.2l-8.417 4.107c-.037.022-.078.036-.12.041s-.085 0-.125-.014-.078-.036-.11-.066a.34.34 0 0 1-.078-.108L21.13 1.327c-.199-.402-.493-.737-.851-.97S19.513 0 19.097 0s-.824.123-1.182.357a2.46 2.46 0 0 0-.851.97l-4.917 9.717c-.019.041-.046.078-.078.108s-.07.052-.11.066c-.04.014-.083.018-.125.014s-.083-.019-.12-.041L3.297 7.084c-.398-.198-.838-.27-1.271-.207s-.841.259-1.178.564C.511 7.747.259 8.15.12 8.605s-.159.944-.057 1.412l4.25 19.855c.072.336.205.652.391.929s.422.51.692.685c.356.24.766.367 1.183.367.214-.002.426-.033.633-.092a40.736 40.736 0 0 1 23.75-.018c.303.096.621.124.934.081s.615-.155.888-.33c.273-.175.51-.409.698-.687s.323-.597.396-.934l4.233-19.855c.106-.464.09-.951-.046-1.405s-.386-.857-.721-1.161zM36.18 9.504l-4.25 19.855a.424.424 0 0 1-.15.238.388.388 0 0 1-.267.037 42.554 42.554 0 0 0-24.833 0 .31.31 0 0 1-.263-.038c-.039-.026-.073-.06-.099-.101s-.045-.087-.055-.136L2.013 9.504a.417.417 0 0 1 .071-.314c.032-.044.072-.079.117-.104s.095-.039.146-.04l.133.037 8.433 4.125c.532.263 1.134.297 1.687.093s1.016-.63 1.296-1.193l4.917-9.717c.026-.058.067-.107.117-.141a.297.297 0 0 1 .334 0c.05.034.09.083.117.141l4.917 9.717c.28.563.743.989 1.296 1.193s1.156.171 1.688-.093l8.433-4.125c.057-.028.12-.037.182-.028s.12.038.168.083c.049.043.086.1.106.165s.024.135.011.202zM25.43 23.437c-.028.271-.146.521-.33.703s-.422.284-.67.287h-.1a47.572 47.572 0 0 0-10.467 0c-.263.031-.526-.054-.732-.236s-.338-.447-.368-.736c-.023-.291.058-.581.226-.807s.41-.371.674-.403a46.798 46.798 0 0 1 10.867 0c.261.032.5.174.668.397s.251.507.232.795z"/>
    </symbol>
    <symbol id="facebook-icon" viewBox="0 0 19 32">
      <path d="M18.004.238A42.834 42.834 0 0 0 13.376 0C8.251 0 5.067 3.264 5.067 8.518v3.567H.762a.762.762 0 0 0-.762.762v5.867a.762.762 0 0 0 .762.762h4.305V31.24a.762.762 0 0 0 .762.762h6.062a.762.762 0 0 0 .762-.762V19.476h4.291a.763.763 0 0 0 .756-.663l.757-5.867a.774.774 0 0 0-.182-.602.758.758 0 0 0-.572-.26h-5.048V9.099c0-1.478.297-2.095 2.146-2.095h3.107a.762.762 0 0 0 .762-.762V.992a.763.763 0 0 0-.663-.756zm-.861 5.242-2.347.002c-3.287 0-3.668 2.066-3.668 3.619v3.749a.76.76 0 0 0 .761.762h4.946l-.562 4.343H11.89a.762.762 0 0 0-.762.762v11.761H6.59V18.717a.762.762 0 0 0-.762-.762H1.525v-4.343h4.303a.762.762 0 0 0 .762-.762V8.519c0-4.379 2.537-6.994 6.786-6.994 1.537 0 2.926.084 3.767.157v3.799z"/>
    </symbol>
    <symbol id="instagram-icon" viewBox="0 0 32 32">
      <path d="M15.68 8.32a7.364 7.364 0 0 0-6.8 4.543 7.36 7.36 0 1 0 6.798-4.545zm0 12.8a5.436 5.436 0 0 1-5.026-3.358 5.436 5.436 0 0 1 3.964-7.417 5.437 5.437 0 0 1 5.584 2.314c.598.895.917 1.946.917 3.022a5.455 5.455 0 0 1-5.44 5.44zM22.72 0H8.64A8.643 8.643 0 0 0 0 8.64v14.08a8.643 8.643 0 0 0 8.64 8.64h14.08a8.643 8.643 0 0 0 8.64-8.64V8.64A8.643 8.643 0 0 0 22.72 0zm6.72 22.72a6.723 6.723 0 0 1-6.72 6.72H8.64a6.721 6.721 0 0 1-6.72-6.72V8.64a6.721 6.721 0 0 1 6.72-6.72h14.08a6.723 6.723 0 0 1 6.72 6.72v14.08zM25.6 7.36a1.6 1.6 0 1 1-3.198 0 1.6 1.6 0 0 1 3.197 0z"/>
    </symbol>
    <symbol id="science-icon" viewBox="0 0 29 32">
      <path d="M14.347 0c-1.145 0-2.215.522-3.127 1.376S9.528 3.42 8.877 4.861a18.01 18.01 0 0 0-.391.939 18.142 18.142 0 0 0-1.011-.131 14.909 14.909 0 0 0-1.15-.072c-1.12-.027-2.143.087-3.04.359-1.196.363-2.182 1.028-2.755 2.02s-.656 2.179-.372 3.396c.284 1.217.924 2.488 1.847 3.772.194.269.401.54.619.81-.214.264-.42.533-.618.809-.923 1.284-1.563 2.555-1.847 3.772s-.201 2.404.372 3.396 1.559 1.658 2.755 2.02 2.616.444 4.19.286c.33-.033.667-.077 1.01-.131.122.317.252.631.392.941.651 1.441 1.431 2.631 2.343 3.485s1.982 1.376 3.127 1.376c1.145 0 2.215-.522 3.127-1.376s1.692-2.044 2.343-3.485c.139-.31.27-.624.392-.941a17.9 17.9 0 0 0 1.009.131c1.574.157 2.994.076 4.19-.286s2.182-1.028 2.755-2.02.656-2.179.372-3.396-.924-2.488-1.847-3.772a17.818 17.818 0 0 0-.618-.809c.214-.264.42-.534.619-.809.923-1.284 1.563-2.555 1.847-3.772s.201-2.404-.372-3.396-1.559-1.658-2.755-2.02c-.897-.272-1.92-.385-3.039-.359-.373.009-.757.033-1.15.072-.33.033-.667.077-1.01.131-.122-.317-.252-.63-.391-.939-.651-1.441-1.431-2.631-2.343-3.485S15.495.001 14.35.001zm0 1.274c.764 0 1.513.336 2.256 1.032s1.452 1.749 2.053 3.08c.098.217.191.436.279.657-1.46.325-3.007.823-4.588 1.488A27.09 27.09 0 0 0 9.76 6.043c.09-.226.183-.446.279-.658.601-1.331 1.31-2.384 2.053-3.08s1.492-1.031 2.256-1.031zM5.921 6.869a13.553 13.553 0 0 1 1.428.068c.232.023.47.053.711.088a27.024 27.024 0 0 0-1.005 4.717 27.01 27.01 0 0 0-3.583 3.229 15.801 15.801 0 0 1-.431-.571c-.852-1.185-1.409-2.326-1.641-3.318s-.147-1.808.235-2.469c.382-.662 1.047-1.143 2.021-1.438.639-.194 1.405-.298 2.266-.306zm16.852 0c.861.008 1.626.112 2.266.306.974.295 1.639.776 2.021 1.438s.466 1.478.235 2.469c-.231.991-.789 2.132-1.641 3.318-.14.194-.283.384-.431.571a27.13 27.13 0 0 0-3.582-3.229 27.056 27.056 0 0 0-1.005-4.718 14.236 14.236 0 0 1 1.763-.154c.125-.003.25-.004.375-.003zm-3.404.385c.339 1.053.619 2.214.829 3.457a34.473 34.473 0 0 0-4.237-2.446 24.781 24.781 0 0 1 3.408-1.011zm-10.044 0a24.76 24.76 0 0 1 3.407 1.01 34.599 34.599 0 0 0-4.236 2.445c.209-1.242.49-2.404.829-3.456zm5.022 1.667c1.037.457 2.089.989 3.138 1.595s2.037 1.252 2.951 1.921c.122 1.127.188 2.304.188 3.516s-.066 2.388-.188 3.514a32.84 32.84 0 0 1-6.09 3.516c-1.037-.457-2.09-.989-3.139-1.595s-2.036-1.251-2.95-1.92c-.122-1.127-.188-2.304-.188-3.515s.066-2.39.188-3.517a32.822 32.822 0 0 1 6.088-3.515zm.086 1.917-3.648 2.251 3.648 2.251 3.648-2.251-3.648-2.251zm-7.552 2.669a35.027 35.027 0 0 0 0 4.892 24.69 24.69 0 0 1-2.579-2.446 24.69 24.69 0 0 1 2.579-2.446zm14.932 0a24.776 24.776 0 0 1 2.578 2.446 24.77 24.77 0 0 1-2.578 2.445 34.992 34.992 0 0 0 0-4.891zm-11.85.573v4.445l3.831 2.364v-4.445L9.963 14.08zm8.936.002-3.83 2.364v4.443l3.83-2.364v-4.443zM3.471 16.935a26.94 26.94 0 0 0 3.583 3.229c.214 1.702.556 3.29 1.005 4.716-.241.035-.478.065-.709.088-1.453.145-2.72.057-3.694-.238s-1.639-.776-2.021-1.438c-.382-.662-.466-1.478-.235-2.469s.789-2.132 1.641-3.318c.139-.193.283-.384.43-.571zm21.752 0c.15.191.295.381.43.57.852 1.185 1.409 2.326 1.641 3.317s.147 1.808-.234 2.469c-.382.662-1.047 1.143-2.021 1.438s-2.241.383-3.693.238a15.414 15.414 0 0 1-.709-.088 27.036 27.036 0 0 0 1.005-4.718 27.057 27.057 0 0 0 3.582-3.228zm-5.025 4.26a24.682 24.682 0 0 1-.829 3.457 24.781 24.781 0 0 1-3.408-1.011 35.272 35.272 0 0 0 4.236-2.446zm-11.702.001a35.248 35.248 0 0 0 4.235 2.446c-1.181.44-2.326.778-3.407 1.01a24.636 24.636 0 0 1-.828-3.456zm5.889.058.046.029.046-.029h-.093zm-.038 3.12a27.128 27.128 0 0 0 4.588 1.488c-.088.222-.181.442-.279.659-.601 1.33-1.31 2.384-2.053 3.08s-1.492 1.032-2.256 1.032c-.764 0-1.513-.336-2.256-1.032s-1.452-1.749-2.053-3.08a16.45 16.45 0 0 1-.279-.659 27.09 27.09 0 0 0 4.587-1.488z"/>
    </symbol>
    <symbol id="tel-icon" viewBox="0 0 28 32">
      <path d="m25.766 22.83-.179-.223c-1.416-1.791-2.6-2.722-3.616-2.845-.878-.12-1.727.487-2.63 1.112l-.965.603c-.116.058-.23.105-.337.136-.564.16-1.989.253-2.795-.484-.939-.859-2.395-2.431-3.528-3.804-1.082-1.422-2.271-3.195-2.892-4.311-.524-.946-.085-2.268.208-2.758.058-.096.133-.191.217-.285l.851-.786c.012-.012.018-.028.029-.039.008-.008.022-.005.032-.012.768-.648 1.562-1.316 1.671-2.173.128-1.007-.498-2.37-1.917-4.159l-.173-.223C8.864 1.453 7.536-.249 5.628.031c-.75.111-1.42.367-2.111.801-.007.004-.011.012-.017.017s-.012.004-.018.008l-.962.713c-.01.006-.015.018-.025.026-.007.007-.018.008-.026.015-.111.094-.223.19-.333.289C1.16 2.77-.952 5.295.489 9.967c.93 3.017 2.849 6.538 5.562 10.201l-.026.022 1.496 1.864.012-.01c2.941 3.479 5.935 6.169 8.678 7.797 1.831 1.087 3.43 1.447 4.746 1.447 1.731 0 2.971-.622 3.594-1.027l.391-.262c.044-.03.076-.073.107-.111l.852-.641c.01-.008.015-.019.025-.028.004-.004.011-.003.017-.007.606-.553 1.025-1.133 1.317-1.82.756-1.76-.597-3.446-1.492-4.563zm.481 4.13c-.227.534-.559.988-1.038 1.429l-1.268.954c-1.148.746-3.602 1.668-7.167-.449-2.743-1.628-5.763-4.381-8.734-7.961l-.804-1.016C4.438 16.206 2.47 12.653 1.541 9.641c-1.207-3.916.314-6.016 1.332-6.923.103-.094.206-.18.308-.267l.004-.004.924-.684a4.204 4.204 0 0 1 1.681-.644C7.069.926 8.109 2.275 8.873 3.255l.179.227c1.586 2 1.738 2.951 1.689 3.339-.055.431-.71.983-1.288 1.469l-.081.069-.007.01-.012.007-.879.813c-.005.005-.008.012-.014.019s-.017.01-.022.017a3.137 3.137 0 0 0-.348.464c-.494.827-.961 2.537-.224 3.859.643 1.156 1.866 2.982 2.991 4.458 1.175 1.426 2.674 3.044 3.646 3.932.728.665 1.741.888 2.618.888.469 0 .9-.065 1.226-.157.172-.05.35-.121.533-.211.011-.005.017-.015.028-.022.005-.003.014-.001.019-.006l1.021-.639c.033-.022.055-.051.083-.078l.012.014c.629-.436 1.346-.948 1.795-.874.398.048 1.301.431 2.889 2.436l.183.23c.773.965 1.833 2.286 1.339 3.441z"/>
    </symbol>
    <symbol id="arrow-icon" viewBox="0 0 36 32">
      <path d="M1.062 17.414a2 2 0 0 1 0-2.828L13.79 1.858a2 2 0 1 1 2.828 2.828L5.304 16l11.314 11.314a2 2 0 1 1-2.828 2.828L1.062 17.414zM36 18H2.476v-4H36v4z"/>
    </symbol>
    <symbol id="burger-menu-icon" viewBox="0 0 20 14">
      <path d="M20 13.005c0 .55-.446.995-.995.995h-8.01a.995.995 0 1 1 0-1.99h8.01c.55 0 .995.445.995.995ZM20 7c0 .55-.446.995-.995.995H.995a.995.995 0 1 1 0-1.99h18.01c.55 0 .995.446.995.995Zm-.995-5.01a.995.995 0 1 0 0-1.99H6.995a.995.995 0 1 0 0 1.99h12.01Z"/>
    </symbol>
	<symbol id="star-icon" viewBox="0 0 64 64">
	  <path d="m32 0 7.24 24.76L64 32l-24.76 7.24L32 64l-7.24-24.76L0 32l24.76-7.24L32 0Z"/>
	</symbol>
  </defs>
</svg>
