<?xml version="1.0" encoding="UTF-8"?>
<svg xmlns="http://www.w3.org/2000/svg" xmlns:xlink="http://www.w3.org/1999/xlink" width="0" height="0">
<symbol id="close-icon" width="18" height="18" viewBox="0 0 18 18" fill="none">
    <path d="M1 1L9 9L17 1" stroke-width="2" stroke-linecap="round"/>
    <path d="M1 17L9 9L17 17" stroke-width="2" stroke-linecap="round"/>
</symbol>
<symbol id="cosmetic-appliances" width="43" height="34" viewBox="0 0 43 34" fill="none"><path d="M13.1079 10.8826H-0.18439C-0.592759 10.8826 -0.922852 11.1993 -0.922852 11.5911V15.8421C-0.922852 16.2339 -0.592759 16.5506 -0.18439 16.5506H0.554072V32.8461C0.554072 33.2379 0.884164 33.5546 1.29253 33.5546H11.631C12.0394 33.5546 12.3695 33.2379 12.3695 32.8461V30.0121V19.3846V16.5506H13.1079C13.5163 16.5506 13.8464 16.2339 13.8464 15.8421V11.5911C13.8464 11.1993 13.5163 10.8826 13.1079 10.8826ZM4.98484 24.3441V22.9271H9.41561V21.5101H4.98484V20.0931H10.8925V29.3036H4.98484V25.7611H6.46176V24.3441H4.98484ZM10.8925 18.6761H4.24638C3.83801 18.6761 3.50792 18.9928 3.50792 19.3846V30.0121C3.50792 30.4039 3.83801 30.7206 4.24638 30.7206H10.8925V32.1376H2.03099V16.5506H10.8925V18.6761ZM12.3695 15.1336H11.631H1.29253H0.554072V12.2996H12.3695V15.1336Z"/><path d="M22.8926 11.0154V5.83559C22.8926 5.43221 22.5625 5.10614 22.1541 5.10614H21.4157V1.4589H22.8926V0H14.7695V1.4589H19.9388V5.10614H19.2003C18.7919 5.10614 18.4618 5.43221 18.4618 5.83559V11.0154C16.7789 11.3546 15.508 12.8274 15.508 14.589V16.0479V29.9074V32.8252C15.508 33.2286 15.8381 33.5547 16.2465 33.5547H25.108C25.5164 33.5547 25.8465 33.2286 25.8465 32.8252V29.9074V16.0479V14.589C25.8465 12.8281 24.5756 11.3546 22.8926 11.0154ZM19.9388 6.56504H21.4157V10.9417H19.9388V6.56504ZM19.2003 12.4006H22.1541C23.3756 12.4006 24.3695 13.3825 24.3695 14.589V15.3184H16.9849V14.589C16.9849 13.3825 17.9789 12.4006 19.2003 12.4006ZM24.3695 29.178H16.9849V27.7191H19.9388V26.2602H16.9849V16.7773H24.3695V29.178ZM16.9849 32.0958V30.6369H24.3695V32.0958H16.9849Z"/><path d="M41.7696 9.97583H29.308C28.9252 9.97583 28.6157 10.2952 28.6157 10.6903V32.8403C28.6157 33.2354 28.9252 33.5548 29.308 33.5548H41.7696C42.1524 33.5548 42.4619 33.2354 42.4619 32.8403V10.6903C42.4619 10.2952 42.1524 9.97583 41.7696 9.97583ZM41.0773 32.1258H30.0003V11.4049H41.0773V32.1258Z"/><path d="M10.1543 24.4858H8.30811V25.3927H10.1543V24.4858Z"/><path d="M23.0771 26.2996H21.231V28.1133H23.0771V26.2996Z"/><path d="M20.7693 24.4859C22.5511 24.4859 24.0001 23.0623 24.0001 21.3118C24.0001 19.5613 22.5511 18.1377 20.7693 18.1377C18.9876 18.1377 17.5386 19.5613 17.5386 21.3118C17.5386 23.0623 18.9876 24.4859 20.7693 24.4859ZM20.7693 19.7247C21.6602 19.7247 22.3847 20.4365 22.3847 21.3118C22.3847 22.187 21.6602 22.8988 20.7693 22.8988C19.8785 22.8988 19.154 22.187 19.154 21.3118C19.154 20.4365 19.8785 19.7247 20.7693 19.7247Z"/><path d="M33.8078 17.2307H37.2694C38.6055 17.2307 39.6925 16.2137 39.6925 14.9635C39.6925 13.7133 38.6055 12.6963 37.2694 12.6963H33.8078C32.4717 12.6963 31.3848 13.7133 31.3848 14.9635C31.3848 16.2137 32.4717 17.2307 33.8078 17.2307ZM38.3078 14.9635C38.3078 15.4992 37.8419 15.9352 37.2694 15.9352H36.2309V13.9918H37.2694C37.8419 13.9918 38.3078 14.4278 38.3078 14.9635ZM33.8078 13.9918H34.8463V15.9352H33.8078C33.2353 15.9352 32.7694 15.4992 32.7694 14.9635C32.7694 14.4278 33.2353 13.9918 33.8078 13.9918Z"/><path d="M33.8078 24.4857H37.2694C38.6055 24.4857 39.6925 23.2653 39.6925 21.7651C39.6925 20.2648 38.6055 19.0444 37.2694 19.0444H33.8078C32.4717 19.0444 31.3848 20.2648 31.3848 21.7651C31.3848 23.2653 32.4717 24.4857 33.8078 24.4857ZM38.3078 21.7651C38.3078 22.4079 37.8419 22.9311 37.2694 22.9311H36.2309V20.5991H37.2694C37.8419 20.5991 38.3078 21.1222 38.3078 21.7651ZM33.8078 20.5991H34.8463V22.9311H33.8078C33.2353 22.9311 32.7694 22.4079 32.7694 21.7651C32.7694 21.1222 33.2353 20.5991 33.8078 20.5991Z"/><path d="M33.8078 30.8341H37.2694C38.6055 30.8341 39.6925 29.6137 39.6925 28.1135C39.6925 26.6132 38.6055 25.3928 37.2694 25.3928H33.8078C32.4717 25.3928 31.3848 26.6132 31.3848 28.1135C31.3848 29.6137 32.4717 30.8341 33.8078 30.8341ZM38.3078 28.1135C38.3078 28.7563 37.8419 29.2795 37.2694 29.2795H36.2309V26.9475H37.2694C37.8419 26.9475 38.3078 27.4706 38.3078 28.1135ZM33.8078 26.9475H34.8463V29.2795H33.8078C33.2353 29.2795 32.7694 28.7563 32.7694 28.1135C32.7694 27.4706 33.2353 26.9475 33.8078 26.9475Z"/></symbol><symbol id="crown" width="43" height="36" viewBox="0 0 43 36" fill="none"><path d="M42.0155 8.38178C41.6363 8.03807 41.1775 7.81741 40.6906 7.74454C40.2038 7.67168 39.7081 7.7495 39.2592 7.96928L29.7905 12.5893C29.7487 12.6143 29.7029 12.6299 29.6556 12.6352C29.6083 12.6404 29.5605 12.6352 29.5151 12.6198C29.4697 12.6044 29.4275 12.5792 29.3911 12.5456C29.3546 12.512 29.3247 12.4708 29.303 12.4243L23.7717 1.49303C23.5474 1.04116 23.2167 0.664064 22.8141 0.401351C22.4116 0.138637 21.9522 0 21.4842 0C21.0162 0 20.5568 0.138637 20.1543 0.401351C19.7518 0.664064 19.421 1.04116 19.1967 1.49303L13.6655 12.4243C13.6437 12.4708 13.6138 12.512 13.5774 12.5456C13.5409 12.5792 13.4988 12.6044 13.4533 12.6198C13.4079 12.6352 13.3601 12.6404 13.3128 12.6352C13.2655 12.6299 13.2197 12.6143 13.178 12.5893L3.70921 7.96928C3.26188 7.74611 2.7666 7.66549 2.27968 7.73656C1.79276 7.80764 1.33374 8.02757 0.954805 8.37135C0.575869 8.71513 0.292221 9.16896 0.136109 9.68125C-0.0200029 10.1935 -0.042315 10.7437 0.0717094 11.2693L4.85296 33.6061C4.93393 33.9836 5.08369 34.3391 5.29318 34.6511C5.50266 34.9631 5.76752 35.225 6.07171 35.4212C6.47244 35.6909 6.93314 35.8337 7.40296 35.8337C7.64338 35.8312 7.88264 35.7966 8.11546 35.7305C16.8567 33.0704 26.0896 33.0633 34.8342 35.7099C35.1753 35.8182 35.5328 35.8493 35.8852 35.8012C36.2375 35.7532 36.5773 35.627 36.8841 35.4303C37.1908 35.2337 37.4581 34.9706 37.6697 34.6571C37.8814 34.3435 38.033 33.986 38.1155 33.6061L42.878 11.2693C42.9969 10.7475 42.9791 10.1993 42.8264 9.68829C42.6738 9.17724 42.3926 8.72423 42.0155 8.38178ZM40.703 10.6918L35.9217 33.0287C35.896 33.1372 35.8362 33.2321 35.753 33.2968C35.6598 33.3466 35.5544 33.3611 35.453 33.338C26.3116 30.5604 16.6568 30.5604 7.51546 33.338C7.46618 33.3534 7.41456 33.3575 7.36379 33.3501C7.31302 33.3427 7.26416 33.3239 7.22024 33.2949C7.17632 33.2659 7.13827 33.2273 7.10842 33.1815C7.07857 33.1357 7.05757 33.0837 7.04671 33.0287L2.26546 10.6918C2.25456 10.6301 2.25598 10.5666 2.26963 10.5056C2.28328 10.4446 2.30883 10.3876 2.3445 10.3385C2.38018 10.2895 2.42513 10.2495 2.47623 10.2215C2.52734 10.1935 2.58337 10.178 2.64046 10.1762L2.79046 10.2174L12.278 14.858C12.8763 15.1544 13.5542 15.1916 14.1764 14.9622C14.7985 14.7328 15.3191 14.2537 15.6342 13.6205L21.1655 2.68928C21.195 2.62412 21.2405 2.56931 21.2968 2.53101C21.3531 2.4927 21.418 2.47241 21.4842 2.47241C21.5504 2.47241 21.6153 2.4927 21.6716 2.53101C21.7279 2.56931 21.7734 2.62412 21.803 2.68928L27.3342 13.6205C27.6493 14.2537 28.1699 14.7328 28.792 14.9622C29.4142 15.1916 30.0921 15.1544 30.6905 14.858L40.178 10.2174C40.2423 10.1861 40.3133 10.1752 40.3829 10.1862C40.4525 10.1971 40.518 10.2294 40.5717 10.2793C40.6265 10.3276 40.6679 10.3919 40.6911 10.4648C40.7143 10.5378 40.7184 10.6164 40.703 10.6918ZM28.6092 26.3668C28.5772 26.6713 28.4453 26.9525 28.2381 27.1576C28.031 27.3627 27.7629 27.4775 27.4842 27.4805H27.3717C23.4566 27.0474 19.5118 27.0474 15.5967 27.4805C15.301 27.5153 15.0048 27.4198 14.7729 27.2149C14.541 27.0101 14.3922 26.7125 14.3592 26.3874C14.3329 26.06 14.4241 25.7342 14.6133 25.4798C14.8025 25.2254 15.0747 25.0626 15.3717 25.0262C19.4353 24.5518 23.5331 24.5518 27.5967 25.0262C27.8902 25.0626 28.1595 25.2225 28.3482 25.4724C28.5369 25.7223 28.6304 26.0428 28.6092 26.3668Z"/></symbol><symbol id="facebook" width="17" height="28" viewBox="0 0 17 28" fill="none"><path d="M15.7533 0.208173C14.4083 0.0654914 13.0566 -0.00394429 11.704 0.00017285C7.22 0.00017285 4.43333 2.85617 4.43333 7.45351V10.5748H0.666667C0.489856 10.5748 0.320286 10.6451 0.195262 10.7701C0.0702374 10.8951 0 11.0647 0 11.2415V16.3748C0 16.5516 0.0702374 16.7212 0.195262 16.8462C0.320286 16.9713 0.489856 17.0415 0.666667 17.0415H4.43333V27.3348C4.43333 27.5116 4.50357 27.6812 4.62859 27.8062C4.75362 27.9313 4.92319 28.0015 5.1 28.0015H10.404C10.5808 28.0015 10.7504 27.9313 10.8754 27.8062C11.0004 27.6812 11.0707 27.5116 11.0707 27.3348V17.0415H14.8253C14.9872 17.0416 15.1435 16.9828 15.2652 16.8761C15.3869 16.7693 15.4656 16.622 15.4867 16.4615L16.1493 11.3282C16.1617 11.2341 16.1538 11.1384 16.1262 11.0477C16.0986 10.9569 16.0519 10.873 15.9893 10.8017C15.9267 10.7304 15.8496 10.6732 15.7632 10.6341C15.6767 10.595 15.5829 10.5748 15.488 10.5748H11.0707V7.96284C11.0707 6.66951 11.3307 6.12951 12.948 6.12951H15.6667C15.8435 6.12951 16.013 6.05927 16.1381 5.93424C16.2631 5.80922 16.3333 5.63965 16.3333 5.46284V0.869506C16.3334 0.707651 16.2746 0.551294 16.1679 0.429607C16.0612 0.30792 15.9138 0.229214 15.7533 0.208173ZM15 4.79484L12.9467 4.79617C10.0707 4.79617 9.73733 6.60417 9.73733 7.96284V11.2428C9.73733 11.4194 9.80739 11.5888 9.93212 11.7138C10.0569 11.8388 10.2261 11.9092 10.4027 11.9095H14.7307L14.2387 15.7095H10.404C10.2272 15.7095 10.0576 15.7797 9.9326 15.9048C9.80757 16.0298 9.73733 16.1994 9.73733 16.3762V26.6668H5.76667V16.3762C5.76667 16.1994 5.69643 16.0298 5.5714 15.9048C5.44638 15.7797 5.27681 15.7095 5.1 15.7095H1.33467V11.9095H5.1C5.27681 11.9095 5.44638 11.8393 5.5714 11.7142C5.69643 11.5892 5.76667 11.4196 5.76667 11.2428V7.45351C5.76667 3.62151 7.98667 1.33351 11.704 1.33351C13.0493 1.33351 14.264 1.40684 15 1.47084V4.79484Z"/></symbol><symbol id="instagram" width="25" height="25" viewBox="0 0 25 25" fill="none"><path d="M12.25 6.5C11.1128 6.5 10.0011 6.83723 9.05547 7.46905C8.10989 8.10087 7.3729 8.99889 6.93769 10.0496C6.50249 11.1002 6.38862 12.2564 6.61049 13.3718C6.83235 14.4872 7.37999 15.5117 8.18414 16.3159C8.98829 17.12 10.0128 17.6677 11.1282 17.8895C12.2436 18.1114 13.3998 17.9975 14.4504 17.5623C15.5011 17.1271 16.3991 16.3901 17.031 15.4445C17.6628 14.4989 18 13.3872 18 12.25C18 10.725 17.3942 9.26247 16.3159 8.18414C15.2375 7.1058 13.775 6.5 12.25 6.5ZM12.25 16.5C11.4094 16.5 10.5877 16.2507 9.88883 15.7837C9.18992 15.3168 8.64519 14.653 8.32351 13.8764C8.00184 13.0998 7.91768 12.2453 8.08166 11.4209C8.24565 10.5964 8.65042 9.83917 9.2448 9.2448C9.83917 8.65042 10.5964 8.24565 11.4209 8.08166C12.2453 7.91768 13.0998 8.00184 13.8764 8.32351C14.653 8.64518 15.3168 9.18992 15.7837 9.88883C16.2507 10.5877 16.5 11.4094 16.5 12.25C16.4967 13.3762 16.0479 14.4552 15.2516 15.2516C14.4552 16.0479 13.3762 16.4967 12.25 16.5ZM17.75 0H6.75C4.95979 0 3.2429 0.711159 1.97703 1.97703C0.711159 3.2429 0 4.95979 0 6.75V17.75C0 19.5402 0.711159 21.2571 1.97703 22.523C3.2429 23.7888 4.95979 24.5 6.75 24.5H17.75C19.5402 24.5 21.2571 23.7888 22.523 22.523C23.7888 21.2571 24.5 19.5402 24.5 17.75V6.75C24.5 4.95979 23.7888 3.2429 22.523 1.97703C21.2571 0.711159 19.5402 0 17.75 0ZM23 17.75C23 19.1424 22.4469 20.4777 21.4623 21.4623C20.4777 22.4469 19.1424 23 17.75 23H6.75C5.35761 23 4.02226 22.4469 3.03769 21.4623C2.05312 20.4777 1.5 19.1424 1.5 17.75V6.75C1.5 5.35761 2.05312 4.02225 3.03769 3.03769C4.02226 2.05312 5.35761 1.5 6.75 1.5H17.75C19.1424 1.5 20.4777 2.05312 21.4623 3.03769C22.4469 4.02225 23 5.35761 23 6.75V17.75ZM20 5.75C20 5.99723 19.9267 6.2389 19.7893 6.44446C19.652 6.65002 19.4568 6.81024 19.2284 6.90485C18.9999 6.99946 18.7486 7.02421 18.5061 6.97598C18.2637 6.92775 18.0409 6.8087 17.8661 6.63388C17.6913 6.45907 17.5723 6.23634 17.524 5.99386C17.4758 5.75139 17.5005 5.50005 17.5952 5.27165C17.6898 5.04324 17.85 4.84801 18.0555 4.71066C18.2611 4.57331 18.5028 4.5 18.75 4.5C19.0815 4.5 19.3995 4.6317 19.6339 4.86612C19.8683 5.10054 20 5.41848 20 5.75Z"/></symbol><symbol id="sciense" width="40" height="44" viewBox="0 0 40 44" fill="none"><path d="M19.7274 9.38773e-05C18.1524 9.38773e-05 16.6815 0.717281 15.4277 1.89169C14.174 3.06637 13.1008 4.70231 12.2061 6.68391C12.0186 7.09903 11.8396 7.53047 11.6684 7.9755C11.2067 7.90222 10.7431 7.84201 10.2781 7.79494C9.73712 7.74103 9.20931 7.70756 8.6965 7.69556C7.15712 7.659 5.75022 7.81509 4.51712 8.18887C2.87312 8.68734 1.51656 9.60291 0.729061 10.9667C-0.0584384 12.3307 -0.172814 13.9633 0.217468 15.6364C0.607936 17.3093 1.48797 19.0567 2.75687 20.8224C3.02312 21.1927 3.30756 21.5642 3.60775 21.9355C3.31407 22.2981 3.0307 22.6688 2.758 23.0474C1.489 24.813 0.608968 26.5604 0.218593 28.2335C-0.171782 29.9065 -0.0573133 31.5391 0.730187 32.9029C1.51769 34.2669 2.87425 35.1824 4.51825 35.6807C6.16234 36.1792 8.11572 36.2907 10.2792 36.0746C10.7327 36.0292 11.1961 35.9687 11.6674 35.8944C11.8347 36.3307 12.0144 36.7622 12.2061 37.1884C13.1008 39.1702 14.1739 40.8059 15.4277 41.9805C16.6814 43.155 18.1525 43.8724 19.7274 43.8724C21.3022 43.8724 22.7733 43.155 24.0271 41.9805C25.2807 40.8058 26.3539 39.1702 27.2486 37.1884C27.4403 36.7623 27.62 36.3309 27.7873 35.8946C28.2581 35.9687 28.721 36.0293 29.1742 36.0746C31.3378 36.2906 33.2912 36.1792 34.9352 35.6807C36.5793 35.1823 37.9359 34.2667 38.7234 32.9029C39.5109 31.5388 39.6253 29.9064 39.235 28.2335C38.8445 26.5605 37.9644 24.8131 36.6956 23.0474C36.4228 22.6689 36.1394 22.2981 35.8457 21.9355C36.1399 21.5727 36.4236 21.2015 36.6966 20.8225C37.9655 19.0568 38.8456 17.3094 39.2359 15.6365C39.6263 13.9634 39.5118 12.3308 38.7243 10.9668C37.9368 9.603 36.5803 8.68744 34.9363 8.18897C33.7033 7.81519 32.2963 7.65909 30.7571 7.69556C30.2439 7.70756 29.716 7.74103 29.1752 7.79494C28.7214 7.84031 28.2576 7.90116 27.7861 7.97541C27.6189 7.53995 27.4396 7.10928 27.2482 6.68391C26.3536 4.70203 25.2804 3.06609 24.0267 1.89159C22.773 0.717094 21.3018 0 19.727 0L19.7274 9.38773e-05ZM19.7274 1.752C20.7779 1.752 21.8079 2.21353 22.8292 3.17044C23.8504 4.12716 24.8258 5.57541 25.6517 7.40484C25.7861 7.70333 25.9138 8.00475 26.0348 8.30888C24.027 8.75531 21.9004 9.44025 19.7268 10.3554C17.5537 9.44044 15.4275 8.75569 13.42 8.30925C13.5439 7.99894 13.6712 7.6965 13.8031 7.40475C14.629 5.57522 15.6044 4.12697 16.6257 3.17006C17.647 2.21334 18.6769 1.75181 19.7276 1.75181L19.7274 1.752ZM8.14084 9.44484C8.30997 9.44316 8.48181 9.44428 8.65628 9.44822C9.12128 9.45853 9.60475 9.48853 10.1041 9.5385C10.4234 9.57037 10.7497 9.61116 11.0813 9.65925C10.4639 11.6212 9.99381 13.8051 9.69925 16.1449C7.81975 17.5699 6.16319 19.0693 4.77269 20.5852C4.56918 20.3278 4.37141 20.0659 4.17953 19.7997C3.00812 18.1698 2.24172 16.601 1.92362 15.238C1.60562 13.8751 1.72112 12.7524 2.24631 11.8427C2.7715 10.9329 3.68631 10.2717 5.02544 9.86569C5.90434 9.59916 6.95669 9.45553 8.14075 9.44475L8.14084 9.44484ZM31.3128 9.44484C32.4969 9.45562 33.5492 9.59925 34.4282 9.86578C35.7675 10.2717 36.6819 10.9329 37.2072 11.8427C37.7324 12.7524 37.848 13.8752 37.53 15.238C37.2122 16.6009 36.4453 18.1698 35.2741 19.7997C35.0822 20.0659 34.8845 20.3279 34.6811 20.5853C33.2908 19.0697 31.6347 17.5706 29.7557 16.1458C29.4614 13.8056 28.9907 11.6214 28.3733 9.65925C28.7045 9.61116 29.0305 9.57019 29.3495 9.5385C29.8308 9.48974 30.3138 9.45959 30.7974 9.44812C30.9692 9.44422 31.141 9.44306 31.3128 9.44466V9.44484ZM26.6328 9.97359C27.0988 11.4209 27.4846 13.0178 27.7725 14.7267C26.8424 14.0984 25.8903 13.5032 24.9182 12.9422C23.9467 12.381 22.9558 11.8544 21.9472 11.3632C23.571 10.758 25.1466 10.2937 26.6328 9.97378V9.97359ZM12.8219 9.97387C14.3078 10.2939 15.8833 10.7582 17.5066 11.3632C16.498 11.8545 15.5071 12.3811 14.5356 12.9422C13.5639 13.503 12.6122 14.0978 11.6824 14.7257C11.9702 13.0173 12.3559 11.4208 12.8219 9.97387ZM19.7268 12.267C21.1525 12.8959 22.5996 13.6267 24.0422 14.4596C25.4852 15.2929 26.8425 16.1809 28.1001 17.1015C28.2685 18.6509 28.3591 20.2701 28.3591 21.9362C28.3591 23.6014 28.2688 25.2199 28.1005 26.7686C26.8428 27.6891 25.4858 28.5769 24.0432 29.4099C22.6004 30.2429 21.1529 30.9741 19.7269 31.6029C18.3008 30.9741 16.8533 30.2429 15.4105 29.4099C13.9682 28.5772 12.6117 27.6896 11.3545 26.7696C11.1862 25.2205 11.0957 23.6017 11.0957 21.9361C11.0957 20.2697 11.1862 18.6503 11.3547 17.1007C12.6122 16.1804 13.9689 15.2925 15.4115 14.4596C16.8542 13.6268 18.3013 12.8959 19.7268 12.2672V12.267ZM19.8453 14.9029L14.8295 17.9982L19.8453 21.0938L24.8612 17.9982L19.8453 14.9028V14.9029ZM9.46159 18.5717C9.38277 19.6914 9.34346 20.8135 9.34375 21.9359C9.34375 23.0795 9.38406 24.202 9.46168 25.2982C8.12575 24.1947 6.93578 23.0622 5.9154 21.9351C6.93578 20.808 8.12565 19.6753 9.46159 18.5717ZM29.9933 18.5726C31.3286 19.6761 32.5183 20.8083 33.5383 21.9352C32.5183 23.062 31.3286 24.1942 29.9933 25.2974C30.0721 24.1787 30.1113 23.0575 30.1111 21.936C30.1111 20.7919 30.0707 19.6691 29.9932 18.5726H29.9933ZM13.6996 19.3596V25.4719L18.9674 28.7228V22.6108L13.6996 19.3596ZM25.9862 19.3627L20.7197 22.6131V28.7222L25.9863 25.4719V19.3627H25.9862ZM4.7725 23.2852C6.16319 24.8012 7.81956 26.3002 9.69887 27.7252C9.99325 30.0648 10.4635 32.2485 11.0807 34.2104C10.7498 34.2582 10.4239 34.2992 10.1052 34.3311C8.10793 34.5305 6.36578 34.4098 5.02656 34.0039C3.68725 33.5979 2.77281 32.9364 2.24753 32.0267C1.72234 31.1168 1.60675 29.9942 1.92475 28.6313C2.24275 27.2685 3.00925 25.6996 4.18065 24.0697C4.37214 23.8038 4.5694 23.5423 4.7725 23.2852ZM34.681 23.2855C34.8879 23.548 35.086 23.8096 35.2728 24.0697C36.4442 25.6995 37.2107 27.2684 37.5286 28.6312C37.8466 29.9941 37.7313 31.1167 37.2062 32.0266C36.6808 32.9363 35.7662 33.5978 34.4268 34.0038C33.0877 34.4097 31.3458 34.5304 29.3486 34.331C29.0229 34.2979 28.698 34.2578 28.3741 34.2105C28.9914 32.2481 29.4616 30.0639 29.7559 27.7239C31.6347 26.2993 33.2909 24.8006 34.6811 23.2853L34.681 23.2855ZM27.7728 29.1433C27.485 30.852 27.0993 32.4489 26.6334 33.8962C25.1471 33.5762 23.5712 33.1117 21.9474 32.5066C22.9563 32.0152 23.9475 31.4883 24.9193 30.9271C25.8912 30.3662 26.843 29.7713 27.773 29.1433H27.7728ZM11.6821 29.1442C12.6115 29.7719 13.5629 30.3666 14.5343 30.9271C15.5061 31.4883 16.4973 32.0151 17.5062 32.5066C15.8828 33.1116 14.3074 33.576 12.8212 33.896C12.3553 32.449 11.9699 30.8525 11.6821 29.1442ZM19.7792 29.2239L19.843 29.2633L19.9065 29.2239H19.7793H19.7792ZM19.7267 33.5146C21.9008 34.4296 24.0274 35.1144 26.0356 35.5608C25.9143 35.8658 25.7864 36.168 25.6517 36.4673C24.8258 38.2967 23.8504 39.7448 22.8291 40.7017C21.8079 41.6586 20.7779 42.1202 19.7274 42.1202C18.6768 42.1202 17.6468 41.6586 16.6256 40.7017C15.6044 39.7449 14.629 38.2967 13.8031 36.4672C13.6685 36.1679 13.5405 35.8656 13.4192 35.5607C15.4269 35.1142 17.5533 34.4295 19.7269 33.5146H19.7267Z"/></symbol><symbol id="tel" width="27" height="31" viewBox="0 0 27 31" fill="none"><path d="M24.9611 22.1165L24.7877 21.9005C23.4157 20.1658 22.2691 19.2632 21.2851 19.1445C20.4344 19.0285 19.6117 19.6165 18.7371 20.2218L17.8024 20.8058C17.6904 20.8618 17.5797 20.9072 17.4757 20.9378C16.9291 21.0925 15.5491 21.1832 14.7677 20.4685C13.8584 19.6365 12.4477 18.1138 11.3504 16.7832C10.3024 15.4058 9.15039 13.6885 8.54905 12.6072C8.04105 11.6912 8.46639 10.4098 8.75039 9.93516C8.80639 9.84183 8.87972 9.74983 8.96105 9.65916L9.78505 8.89783C9.79705 8.88583 9.80239 8.87116 9.81305 8.86049C9.82105 8.85249 9.83439 8.85516 9.84372 8.84849C10.5877 8.22049 11.3571 7.57383 11.4624 6.74316C11.5864 5.76716 10.9797 4.44716 9.60505 2.71383L9.43705 2.49783C8.58639 1.40716 7.29972 -0.242174 5.45172 0.0298259C4.72505 0.137826 4.07572 0.385826 3.40639 0.805826C3.39972 0.809826 3.39572 0.817826 3.39039 0.821826C3.38505 0.825826 3.37839 0.825826 3.37305 0.829826L2.44105 1.52049C2.43172 1.52583 2.42639 1.53783 2.41705 1.54583C2.41039 1.55249 2.39972 1.55383 2.39172 1.56049C2.28372 1.65116 2.17572 1.74449 2.06905 1.84049C1.12372 2.68316 -0.922948 5.12983 0.473052 9.65516C1.37439 12.5778 3.23305 15.9885 5.86105 19.5378L5.83572 19.5592L7.28505 21.3645L7.29705 21.3552C10.1464 24.7258 13.0464 27.3312 15.7037 28.9085C17.4771 29.9618 19.0264 30.3098 20.3011 30.3098C21.9784 30.3098 23.1797 29.7072 23.7824 29.3152L24.1611 29.0618C24.2037 29.0325 24.2344 28.9912 24.2651 28.9538L25.0904 28.3325C25.0997 28.3245 25.1051 28.3138 25.1144 28.3058C25.1184 28.3018 25.1251 28.3032 25.1304 28.2992C25.7171 27.7632 26.1237 27.2018 26.4064 26.5365C27.1384 24.8312 25.8277 23.1978 24.9611 22.1165ZM25.4264 26.1178C25.2064 26.6352 24.8851 27.0752 24.4211 27.5018L23.1931 28.4258C22.0811 29.1485 19.7037 30.0418 16.2504 27.9912C13.5931 26.4138 10.6677 23.7472 7.78905 20.2792L7.01039 19.2952C4.29972 15.7005 2.39305 12.2578 1.49305 9.34049C0.323719 5.54716 1.79705 3.51249 2.78372 2.63383C2.88372 2.54316 2.98372 2.45916 3.08239 2.37516L3.08639 2.37116L3.98105 1.70849C4.52505 1.36449 5.02905 1.17249 5.60905 1.08449C6.84772 0.897826 7.85572 2.20449 8.59572 3.15383L8.76905 3.37383C10.3051 5.31116 10.4531 6.23249 10.4051 6.60849C10.3517 7.02583 9.71705 7.56049 9.15705 8.03116L9.07839 8.09783C9.07572 8.10049 9.07439 8.10449 9.07172 8.10716C9.06772 8.10983 9.06372 8.11116 9.05972 8.11383L8.20772 8.90183C8.20239 8.90716 8.19972 8.91383 8.19439 8.92049C8.18905 8.92716 8.17839 8.92983 8.17305 8.93649C8.04105 9.08449 7.92772 9.23249 7.83572 9.38583C7.35705 10.1872 6.90505 11.8432 7.61839 13.1245C8.24105 14.2445 9.42639 16.0138 10.5157 17.4432C11.6544 18.8245 13.1064 20.3925 14.0477 21.2525C14.7531 21.8965 15.7344 22.1125 16.5837 22.1125C17.0384 22.1125 17.4557 22.0498 17.7717 21.9605C17.9384 21.9125 18.1104 21.8432 18.2877 21.7565C18.2984 21.7512 18.3037 21.7418 18.3144 21.7352C18.3197 21.7325 18.3277 21.7338 18.3331 21.7298L19.3224 21.1112C19.3544 21.0898 19.3757 21.0618 19.4024 21.0352L19.4144 21.0485C20.0237 20.6258 20.7184 20.1298 21.1531 20.2018C21.5384 20.2485 22.4131 20.6192 23.9517 22.5618L24.1291 22.7845C24.8784 23.7192 25.9051 24.9992 25.4264 26.1178Z"/></symbol></svg>
